#!OML:ASF F:\VICON\USERDATA\INSTALL\rory3\rory3.ASF
:FULLY-SPECIFIED
:DEGREES
1
root 0.0917792 17.1113 -36.2281 4.68854 2.37172 2.1196
lowerback 19.257 -1.22373 -5.06989
upperback 1.70725 -2.88959 -2.17631
thorax -8.80689 -1.22956 1.27549
lowerneck -3.02729 -0.130267 -1.32286
upperneck -12.924 0.233441 4.10486
head -3.67612 0.0262048 1.58301
rclavicle -9.54166e-015 -7.15625e-015
rhumerus -54.6221 8.39899 -88.3047
rradius 81.0784
rwrist -0.792659
rhand -48.8742 40.2847
rfingers 7.12502
rthumb -21.5082 11.4588
lclavicle -9.54166e-015 -7.15625e-015
lhumerus -10.0203 -20.6355 82.8192
lradius 113.865
lwrist 27.5011
lhand -37.1915 8.38258
lfingers 7.12502
lthumb -10.2594 38.1124
rfemur -36.1767 -4.01455 16.7326
rtibia 108.236
rfoot 12.8687 -5.27186
rtoes 8.52629
lfemur -7.00586 -1.73986 -27.8547
ltibia 41.1896
lfoot -18.4606 0.563554
ltoes -11.2184
2
root 0.0966283 17.1923 -35.688 4.69347 3.14878 2.00936
lowerback 18.1549 -1.80572 -4.9789
upperback 2.27532 -3.50822 -1.96261
thorax -7.537 -1.5708 1.5557
lowerneck -3.25817 -0.118654 -0.940065
upperneck -13.0462 0.188487 3.50565
head -3.66791 0.0069487 1.316
rclavicle 1.09332e-014 -4.77083e-015
rhumerus -54.704 8.26341 -87.873
rradius 81.4354
rwrist -0.517986
rhand -48.7744 40.1126
rfingers 7.12502
rthumb -21.4123 11.2758
lclavicle 1.09332e-014 -4.77083e-015
lhumerus -8.35937 -20.1743 82.3819
lradius 114.838
lwrist 28.1092
lhand -37.1657 10.2049
lfingers 7.12502
lthumb -10.2345 39.9359
rfemur -37.8032 -4.4405 17.2771
rtibia 106.199
rfoot 11.7079 -4.86424
rtoes 7.86873
lfemur -4.23904 -2.30085 -27.5947
ltibia 39.2032
lfoot -16.5938 1.31598
ltoes -23.8752
3
root 0.0979772 17.2805 -35.1468 4.66071 3.12776 1.77543
lowerback 16.8157 -2.33853 -4.83837
upperback 2.90867 -4.05064 -1.8159
thorax -6.0899 -1.889 1.67232
lowerneck -3.00462 0.265482 -0.903294
upperneck -13.9759 0.686425 3.12497
head -4.05838 0.255643 1.18256
rclavicle 3.598e-014 1.35174e-014
rhumerus -54.4246 8.60179 -87.7194
rradius 81.4858
rwrist -0.263945
rhand -48.7755 40.3434
rfingers 7.12502
rthumb -21.4134 11.5068
lclavicle 3.598e-014 1.35174e-014
lhumerus -6.93425 -19.119 81.686
lradius 115.636
lwrist 28.7727
lhand -37.5195 8.56407
lfingers 7.12502
lthumb -10.5758 38.278
rfemur -39.4128 -3.7629 17.9927
rtibia 103.798
rfoot 10.1861 -4.75747
rtoes 4.96446
lfemur -1.52043 -2.37377 -27.2252
ltibia 37.2121
lfoot -13.9697 0.26069
ltoes -27.2642
4
root 0.0972884 17.37 -34.5938 4.66018 2.68605 1.71544
lowerback 16.8781 -2.44178 -5.07621
upperback 2.55892 -4.23566 -1.58886
thorax -6.45319 -1.9564 2.09921
lowerneck -2.76751 0.572883 -0.804473
upperneck -14.0627 1.04338 2.59367
head -4.13694 0.445698 0.978492
rclavicle 2.78299e-014 7.95139e-015
rhumerus -55.6822 8.41813 -87.3144
rradius 81.6864
rwrist 0.0867706
rhand -48.7667 40.5493
rfingers 7.12502
rthumb -21.405 11.7117
lclavicle 2.78299e-014 7.95139e-015
lhumerus -7.20449 -18.76 81.9538
lradius 116.466
lwrist 29.3186
lhand -38.0797 6.47223
lfingers 7.12502
lthumb -11.1162 36.1578
rfemur -40.7955 -2.65499 18.396
rtibia 101.136
rfoot 8.22652 -4.91836
rtoes 1.09138
lfemur 1.2521 -2.37978 -27.0782
ltibia 35.0647
lfoot -11.1297 -0.424381
ltoes -29.2054
5
root 0.102075 17.4722 -34.0242 4.93608 2.22795 1.88378
lowerback 15.4636 -2.47911 -5.32701
upperback 3.32179 -4.20261 -1.71022
thorax -4.86113 -2.00112 1.99871
lowerneck -5.21478 0.769675 -0.00843653
upperneck -13.67 1.24054 2.18047
head -3.53025 0.536251 0.697688
rclavicle -5.22804e-014 -7.15625e-015
rhumerus -54.8117 7.39027 -87.0045
rradius 81.5794
rwrist 0.600674
rhand -49.197 40.8694
rfingers 7.12502
rthumb -21.8182 12.0793
lclavicle -5.22804e-014 -7.15625e-015
lhumerus -5.34241 -18.8259 81.1542
lradius 117.117
lwrist 29.9928
lhand -38.1209 6.95787
lfingers 7.12502
lthumb -11.1559 36.6413
rfemur -42.2608 -1.79905 18.423
rtibia 98.1536
rfoot 6.7714 -4.87539
rtoes -0.356354
lfemur 3.712 -2.46835 -27.213
ltibia 32.809
lfoot -7.74858 -1.10869
ltoes -30.0728
6
root 0.112163 17.5701 -33.4523 5.14165 2.05916 1.948
lowerback 16.3494 -2.88688 -5.87855
upperback 1.28846 -4.9497 -0.928805
thorax -7.357 -2.22106 3.41209
lowerneck -1.15901 1.33533 -1.65009
upperneck -13.5164 1.9783 2.07226
head -4.27314 0.964276 0.918186
rclavicle 2.34566e-014 -1.74931e-014
rhumerus -58.9922 8.78089 -86.3071
rradius 82.0281
rwrist 0.719858
rhand -49.3392 41.1013
rfingers 7.12502
rthumb -21.9548 12.3272
lclavicle 2.34566e-014 -1.74931e-014
lhumerus -9.42742 -17.9085 83.4056
lradius 118.232
lwrist 30.3237
lhand -37.9211 6.23159
lfingers 7.12502
lthumb -10.9632 35.9253
rfemur -43.4065 -1.20021 18.5461
rtibia 94.8715
rfoot 6.59433 -4.92398
rtoes 1.33789
lfemur 6.07753 -2.77565 -27.2127
ltibia 30.4106
lfoot -3.48716 -1.85967
ltoes -29.9833
7
root 0.120805 17.6633 -32.8774 5.20105 1.8536 1.73648
lowerback 16.1348 -2.9513 -5.56349
upperback 1.3617 -4.95517 -0.868688
thorax -7.17923 -2.24199 3.28339
lowerneck -3.04876 1.28636 -1.14361
upperneck -12.2258 1.88264 1.75808
head -3.43835 0.918102 0.732641
rclavicle 4.03533e-014 -1.59028e-015
rhumerus -59.4652 7.69956 -85.8318
rradius 82.2102
rwrist 0.909432
rhand -48.953 41.2402
rfingers 7.12502
rthumb -21.5839 12.4231
lclavicle 4.03533e-014 -1.59028e-015
lhumerus -8.89779 -18.3936 83.2669
lradius 118.752
lwrist 31.2677
lhand -37.9073 5.27994
lfingers 7.12502
lthumb -10.9499 34.9744
rfemur -44.1306 -0.450749 18.9844
rtibia 91.2403
rfoot 5.92968 -4.79938
rtoes 2.12542
lfemur 8.66063 -3.13588 -26.9491
ltibia 27.5906
lfoot 1.54535 -2.26806
ltoes -29.6815
8
root 0.134239 17.752 -32.301 5.16886 1.26278 1.67049
lowerback 15.4954 -2.99295 -5.33442
upperback 1.64952 -4.92259 -0.967551
thorax -6.54697 -2.265 2.98698
lowerneck -4.29887 1.32147 -0.51439
upperneck -11.79 1.89179 1.44359
head -3.04533 0.91177 0.527902
rclavicle 1.78906e-015 1.90833e-014
rhumerus -59.6428 6.85948 -85.6167
rradius 82.3881
rwrist 0.915493
rhand -48.9441 40.4518
rfingers 7.12502
rthumb -21.5754 11.6337
lclavicle 1.78906e-015 1.90833e-014
lhumerus -8.40503 -18.6344 82.8481
lradius 119.27
lwrist 31.9955
lhand -37.9164 5.85154
lfingers 7.12502
lthumb -10.9586 35.5455
rfemur -44.5719 0.590515 19.1407
rtibia 87.3328
rfoot 4.76399 -4.89504
rtoes 0.876461
lfemur 11.4673 -3.43226 -27.0404
ltibia 24.4835
lfoot 7.31891 -1.85866
ltoes -28.118
9
root 0.154685 17.877 -31.7048 5.17611 0.457129 1.71964
lowerback 14.0669 -2.99022 -4.93262
upperback 2.64004 -4.74989 -1.44851
thorax -4.79606 -2.27037 2.08918
lowerneck -7.16117 1.59984 0.54104
upperneck -11.0987 2.19006 1.32091
head -2.29709 1.03587 0.328895
rclavicle -6.16232e-015 -1.90833e-014
rhumerus -58.4809 5.33998 -85.7742
rradius 82.3148
rwrist 0.947445
rhand -49.0523 39.5985
rfingers 7.12502
rthumb -21.6792 10.7923
lclavicle -6.16232e-015 -1.90833e-014
lhumerus -6.61997 -19.1834 81.511
lradius 119.682
lwrist 32.3198
lhand -38.0156 7.04594
lfingers 7.12502
lthumb -11.0543 36.7348
rfemur -44.6346 1.46011 19.0789
rtibia 82.9765
rfoot 3.9517 -5.0083
rtoes -1.3679
lfemur 14.3402 -3.92839 -27.4963
ltibia 21.0156
lfoot 14.9109 -0.609229
ltoes -20.8689
10
root 0.175157 17.9798 -31.1138 5.35472 -0.214117 1.7867
lowerback 14.8383 -3.24609 -5.58953
upperback 0.521001 -5.27669 -0.447584
thorax -7.29454 -2.37601 3.75025
lowerneck -3.25289 2.21979 -1.82193
upperneck -10.3186 3.09126 1.45695
head -2.77389 1.55944 0.731966
rclavicle -7.35503e-015 1.47101e-014
rhumerus -62.6822 7.09669 -84.4924
rradius 82.9169
rwrist 0.591553
rhand -49.2145 39.6891
rfingers 7.12502
rthumb -21.835 10.901
lclavicle -7.35503e-015 1.47101e-014
lhumerus -11.4416 -18.1263 84.3151
lradius 120.741
lwrist 31.6977
lhand -38.0467 8.17869
lfingers 7.12502
lthumb -11.0843 37.866
rfemur -44.837 1.98442 19.0202
rtibia 78.4671
rfoot 3.4223 -4.54467
rtoes -1.94441
lfemur 17.151 -3.96273 -27.8669
ltibia 17.199
lfoot 25.371 0.641815
ltoes 0.571659
11
root 0.197724 18.0779 -30.5219 5.61066 -0.71038 1.62978
lowerback 14.4644 -3.0848 -5.03827
upperback 0.629945 -4.95333 -0.568183
thorax -7.05678 -2.25178 3.22164
lowerneck -5.82757 2.10556 -1.03701
upperneck -8.60349 2.90591 1.12018
head -1.73375 1.45876 0.525512
rclavicle -1.00386e-013 1.55052e-014
rhumerus -62.9082 5.42361 -83.8964
rradius 83.2489
rwrist 0.198478
rhand -48.8093 39.9352
rfingers 7.12502
rthumb -21.4459 11.1022
lclavicle -1.00386e-013 1.55052e-014
lhumerus -11.1012 -19.0949 84.1743
lradius 120.965
lwrist 31.927
lhand -37.8715 6.68943
lfingers 7.12502
lthumb -10.9153 36.3857
rfemur -44.9398 2.35689 19.2276
rtibia 73.7097
rfoot 2.70628 -3.42915
rtoes -2.80553
lfemur 20.0999 -4.16667 -27.9592
ltibia 12.8981
lfoot 33.5412 2.0386
ltoes 14.511
12
root 0.216343 18.1611 -29.9279 5.99856 -1.39605 1.85573
lowerback 13.9226 -3.58367 -5.71562
upperback -0.677292 -5.69665 0.152559
thorax -7.96138 -2.51538 4.52286
lowerneck -2.12669 2.86509 -2.53454
upperneck -9.02196 3.88565 0.903718
head -2.55971 1.98824 0.654805
rclavicle 2.04748e-014 1.39149e-014
rhumerus -65.4252 7.40107 -83.2104
rradius 83.8855
rwrist -1.04562
rhand -47.9464 40.0685
rfingers 7.12502
rthumb -20.6169 11.1434
lclavicle 2.04748e-014 1.39149e-014
lhumerus -14.7457 -17.4213 85.8146
lradius 121.681
lwrist 31.21
lhand -38.173 3.9362
lfingers 7.12502
lthumb -11.2061 33.6169
rfemur -45.1458 2.9181 18.9949
rtibia 68.872
rfoot 2.00075 -3.02384
rtoes -3.34605
lfemur 22.9194 -4.25474 -28.3958
ltibia 8.35634
lfoot 39.5611 2.92952
ltoes 17.9536
13
root 0.234024 18.2357 -29.3409 6.31885 -2.06823 2.16737
lowerback 12.8382 -2.96023 -5.09719
upperback 0.335359 -4.73649 -0.878622
thorax -6.50397 -2.16835 2.78612
lowerneck -6.54311 2.40464 0.239471
upperneck -7.76626 3.19043 0.194615
head -1.31127 1.57939 0.0440019
rclavicle -3.63776e-014 7.55382e-015
rhumerus -64.1308 3.44137 -83.1675
rradius 84.1481
rwrist -1.41877
rhand -47.804 40.3298
rfingers 7.12502
rthumb -20.4801 11.3899
lclavicle -3.63776e-014 7.55382e-015
lhumerus -12.4059 -20.3762 84.2666
lradius 121.655
lwrist 31.0242
lhand -37.9326 3.29343
lfingers 7.12502
lthumb -10.9742 32.9866
rfemur -45.1422 3.44208 18.6833
rtibia 63.8828
rfoot 1.84895 -2.85266
rtoes -1.30409
lfemur 27.0536 -4.4169 -28.7623
ltibia 1.4255
lfoot 44.7503 2.90834
ltoes 13.3826
